#!OML:ASF H:\Terrain\Patient Classification 1\Walking\liu\liu.ASF
:FULLY-SPECIFIED
:DEGREES
33
root 8.782125 17.286390 -35.369400 8.322292 -9.061415 -8.149899
lowerback -9.086121 1.770164 4.311813
upperback -1.135937 1.802097 4.068053
thorax 3.920136 0.925674 2.000295
lowerneck -22.592129 -4.978171 -12.854710
upperneck 17.943750 -6.384840 15.954841
head 10.254508 -2.119359 6.828294
rclavicle 0.000000 0.000000
rhumerus -48.826801 22.892981 -102.371719
rradius 66.823463
rwrist -32.888351
rhand -32.849079 -34.155659
rfingers 7.837522
rthumb -3.503478 -67.107262
lclavicle 0.000000 0.000000
lhumerus -47.461372 -9.179479 100.358612
lradius 28.175180
lwrist 3.257188
lhand -12.446280 -28.701752
lfingers 7.837522
lthumb 16.188921 3.701566
rfemur 21.181709 7.730811 33.869881
rtibia 0.000000
rfoot -11.330220 -0.524372
rtoes -34.353111
lfemur -45.103188 6.038494 -9.667877
ltibia 26.590851
lfoot -9.646824 12.430660
ltoes -16.268560
34
root 8.810219 17.297171 -35.181301 8.308366 -9.509621 -8.030187
lowerback -9.201599 1.781879 3.954929
upperback -1.073314 1.833634 4.210327
thorax 4.035361 0.936536 2.357355
lowerneck -22.762739 -4.962892 -12.995510
upperneck 17.973560 -6.296543 15.916890
head 10.284714 -2.084797 6.853748
rclavicle -0.000000 -0.000000
rhumerus -49.015011 23.045219 -102.410332
rradius 66.573433
rwrist -32.546799
rhand -32.954021 -34.307571
rfingers 7.837522
rthumb -3.604799 -67.257629
lclavicle -0.000000 -0.000000
lhumerus -47.595901 -8.780068 100.466080
lradius 27.907330
lwrist 2.762353
lhand -9.554567 -25.865070
lfingers 7.837522
lthumb 18.973570 6.314902
rfemur 21.796280 7.947357 33.458260
rtibia -0.000000
rfoot -10.709446 -0.315142
rtoes -33.713902
lfemur -45.365978 7.022125 -10.276728
ltibia 27.787100
lfoot -6.846202 12.260820
ltoes -18.660400
35
root 8.842724 17.297279 -34.997158 8.352454 -9.649794 -7.826247
lowerback -9.436900 1.711809 3.573614
upperback -0.976961 1.753092 4.293586
thorax 4.255152 0.891683 2.659162
lowerneck -22.879341 -4.954114 -13.126300
upperneck 17.706591 -6.223778 16.013691
head 10.210805 -2.047199 6.914171
rclavicle 0.000000 0.000000
rhumerus -49.080132 23.040930 -102.424408
rradius 66.326920
rwrist -32.101299
rhand -33.397541 -35.704350
rfingers 7.837522
rthumb -4.033150 -68.647369
lclavicle 0.000000 0.000000
lhumerus -47.822170 -8.620293 100.681465
lradius 27.953201
lwrist 2.526821
lhand -10.255355 -25.595020
lfingers 7.837522
lthumb 18.299049 6.642823
rfemur 22.448910 7.877463 32.960182
rtibia -0.000000
rfoot -10.451716 -0.048958
rtoes -34.193501
lfemur -45.820938 7.668848 -10.934914
ltibia 29.162981
lfoot -4.576396 11.654170
ltoes -14.171960
36
root 8.878981 17.265820 -34.819069 8.426077 -9.484023 -7.678308
lowerback -9.559276 1.589456 3.303806
upperback -0.995930 1.608519 4.327708
thorax 4.298481 0.815690 2.832577
lowerneck -23.058090 -4.983616 -12.876050
upperneck 17.624531 -6.255854 15.744081
head 10.201940 -2.067879 6.763922
rclavicle -0.000000 -0.000000
rhumerus -49.096630 23.010460 -102.615700
rradius 65.604546
rwrist -31.778009
rhand -33.770111 -36.334763
rfingers 7.837522
rthumb -4.392883 -69.271286
lclavicle -0.000000 -0.000000
lhumerus -48.157009 -8.884821 101.072174
lradius 28.005890
lwrist 2.691458
lhand -16.638821 -29.646980
lfingers 7.837522
lthumb 12.147301 3.011437
rfemur 23.142021 7.525045 32.543938
rtibia -0.000000
rfoot -9.813935 -0.041017
rtoes -26.798420
lfemur -46.433422 7.911640 -11.427350
ltibia 30.739830
lfoot -2.671636 10.941897
ltoes -7.898528
37
root 8.914191 17.245689 -34.635479 8.519720 -9.291613 -7.674942
lowerback -9.698843 1.461141 3.239929
upperback -1.036428 1.435753 4.374854
thorax 4.335485 0.728581 2.900392
lowerneck -23.279301 -5.008641 -12.675410
upperneck 17.723860 -6.297918 15.546740
head 10.268489 -2.086183 6.654230
rclavicle -0.000000 -0.000000
rhumerus -49.171432 23.047091 -102.843285
rradius 64.728508
rwrist -31.604210
rhand -33.038719 -33.127598
rfingers 7.837522
rthumb -3.686562 -66.076340
lclavicle -0.000000 -0.000000
lhumerus -48.394501 -8.995140 101.282494
lradius 27.920200
lwrist 2.737570
lhand -9.939216 -24.240702
lfingers 7.837522
lthumb 18.603310 7.971326
rfemur 23.766819 7.160956 32.293579
rtibia -0.000000
rfoot -9.170678 -1.169575
rtoes 3.979987
lfemur -47.053928 8.358988 -11.900459
ltibia 32.370361
lfoot -1.415843 10.356577
ltoes -7.636992
38
root 8.959181 17.243820 -34.443420 8.229836 -8.942219 -7.353181
lowerback -9.517574 1.276737 3.072234
upperback -1.012722 1.219845 4.285699
thorax 4.262247 0.619633 2.870604
lowerneck -23.252680 -5.020026 -12.774631
upperneck 17.566891 -6.297478 15.675660
head 10.217801 -2.081299 6.713597
rclavicle -0.000000 0.000000
rhumerus -49.429928 22.816422 -102.970444
rradius 64.148155
rwrist -31.177080
rhand -32.492569 -32.861179
rfingers 7.837522
rthumb -3.159123 -65.817619
lclavicle -0.000000 0.000000
lhumerus -48.577209 -9.066155 101.408669
lradius 27.637501
lwrist 2.744203
lhand -2.871495 -22.445940
lfingers 7.837522
lthumb 25.396580 9.054551
rfemur 24.667061 6.564206 31.730381
rtibia 0.000000
rfoot -6.952275 0.470029
rtoes -25.930521
lfemur -47.234222 8.471969 -12.703020
ltibia 33.966900
lfoot -0.791281 9.996646
ltoes -9.660805
39
root 9.020287 17.238430 -34.248940 7.331577 -8.069841 -6.727897
lowerback -8.742537 0.854469 2.726713
upperback -0.887054 0.730557 4.168615
thorax 3.968283 0.372488 2.870472
lowerneck -23.420870 -4.967556 -12.928740
upperneck 17.663580 -6.163740 15.657400
head 10.264792 -2.023923 6.757850
rclavicle -0.000000 -0.000000
rhumerus -49.715050 22.632940 -103.030403
rradius 63.603432
rwrist -30.705620
rhand -32.895390 -36.964508
rfingers 7.837522
rthumb -3.548204 -69.915451
lclavicle -0.000000 -0.000000
lhumerus -48.728901 -8.880652 101.470604
lradius 27.230719
lwrist 2.263129
lhand 5.881557 -22.625570
lfingers 7.837522
lthumb 33.770882 7.578307
rfemur 26.097389 5.368000 30.885469
rtibia -0.000000
rfoot -7.876858 -1.956999
rtoes 11.429770
lfemur -46.756599 7.603035 -13.575980
ltibia 35.410980
lfoot -0.323946 9.644107
ltoes -8.842867
40
root 9.036532 17.250750 -34.069969 8.149448 -9.259261 -6.959029
lowerback -9.399103 1.281137 2.609178
upperback -1.111110 1.278145 4.346672
thorax 4.081561 0.641193 3.196193
lowerneck -23.561230 -5.072837 -13.195160
upperneck 17.754768 -6.207465 15.599430
head 10.332883 -2.061829 6.779674
rclavicle 0.000000 -0.000000
rhumerus -49.887310 22.199541 -102.894882
rradius 62.922199
rwrist -30.293560
rhand -33.354420 -39.633331
rfingers 7.837522
rthumb -3.991526 -72.577126
lclavicle 0.000000 -0.000000
lhumerus -48.724613 -8.651587 101.499855
lradius 26.698761
lwrist 1.390752
lhand 9.111521 -22.350460
lfingers 7.837522
lthumb 36.845928 7.233094
rfemur 25.685879 6.466658 30.694399
rtibia -0.000000
rfoot -5.925964 0.114690
rtoes -18.402451
lfemur -47.521648 8.881752 -13.607221
ltibia 36.732960
lfoot 0.482310 9.242684
ltoes -6.044346
41
root 9.075110 17.249430 -33.889458 8.443830 -9.742105 -7.148427
lowerback -9.558550 1.685321 2.862233
upperback -1.272161 1.785674 4.477352
thorax 3.989788 0.895763 3.250896
lowerneck -23.041040 -5.504697 -14.319580
upperneck 17.294420 -6.600154 16.197941
head 10.199375 -2.276747 7.118573
rclavicle -0.000000 -0.000000
rhumerus -50.175179 21.299410 -102.456200
rradius 62.368019
rwrist -29.701321
rhand -33.507648 -39.120399
rfingers 7.837522
rthumb -4.139399 -72.061546
lclavicle -0.000000 -0.000000
lhumerus -48.602840 -8.737103 101.810936
lradius 25.897520
lwrist 0.514149
lhand 7.421447 -20.870960
lfingers 7.837522
lthumb 35.238060 9.047918
rfemur 25.822281 6.813059 30.523680
rtibia -0.000000
rfoot -4.120677 1.046179
rtoes -26.719002
lfemur -47.982880 9.619247 -13.822269
ltibia 38.129959
lfoot 1.089461 8.503551
ltoes -4.640240
42
root 9.120727 17.236120 -33.704220 8.487248 -9.792520 -7.131487
lowerback -9.545107 1.359292 2.827836
upperback -1.337314 1.359490 4.447025
thorax 3.927594 0.683498 3.186689
lowerneck -23.302841 -5.156085 -13.739551
upperneck 17.424440 -6.273927 16.176600
head 10.221893 -2.079726 7.065421
rclavicle -0.000000 -0.000000
rhumerus -50.391552 21.817291 -103.254684
rradius 61.713520
rwrist -29.492870
rhand -33.933681 -37.997520
rfingers 7.837522
rthumb -4.550876 -70.930969
lclavicle -0.000000 -0.000000
lhumerus -48.630779 -7.702453 101.002106
lradius 25.479410
lwrist -0.243278
lhand 7.379944 -19.157160
lfingers 7.837522
lthumb 35.198570 10.769638
rfemur 26.351820 6.667034 30.297852
rtibia 0.000000
rfoot -2.765818 1.051525
rtoes -31.515549
lfemur -48.176262 9.915939 -14.247089
ltibia 39.341831
lfoot 0.962237 7.775075
ltoes -4.205476
43
root 9.164243 17.215000 -33.516560 8.418091 -9.872654 -7.055697
lowerback -9.426043 1.240767 2.816385
upperback -1.438811 1.213817 4.445848
thorax 3.759888 0.610767 3.169463
lowerneck -23.385559 -5.056051 -13.665300
upperneck 17.661819 -6.159285 16.111149
head 10.295538 -2.023912 7.054707
rclavicle -0.000000 0.000000
rhumerus -50.655991 22.066990 -103.690956
rradius 60.839130
rwrist -29.956850
rhand -35.189880 -37.437401
rfingers 7.837522
rthumb -5.763868 -70.344116
lclavicle -0.000000 0.000000
lhumerus -48.910950 -7.107133 100.614464
lradius 25.295820
lwrist -1.091705
lhand 7.280229 -18.856859
lfingers 7.837522
lthumb 35.103638 11.088990
rfemur 27.325211 6.507919 30.144949
rtibia 0.000000
rfoot -1.991891 0.975101
rtoes -37.912380
lfemur -48.179558 10.144332 -14.686760
ltibia 40.489460
lfoot 0.607904 7.264125
ltoes -2.448897
44
root 9.207066 17.287161 -33.318340 8.212787 -10.187936 -6.560048
lowerback -9.428574 1.240976 2.429339
upperback -1.307185 1.248104 4.341799
thorax 3.891536 0.623685 3.285381
lowerneck -23.472460 -5.056293 -13.463340
upperneck 17.500120 -6.130113 15.812170
head 10.233630 -2.026024 6.907307
rclavicle 0.000000 0.000000
rhumerus -50.279900 21.899570 -103.452362
rradius 59.688091
rwrist -29.035271
rhand -33.493462 -35.024220
rfingers 7.837522
rthumb -4.125770 -67.965591
lclavicle 0.000000 0.000000
lhumerus -48.657619 -6.817998 100.470917
lradius 24.756161
lwrist -1.658690
lhand 5.536003 -19.493759
lfingers 7.837522
lthumb 33.441319 10.771541
rfemur 27.484491 6.643945 29.007439
rtibia -0.000000
rfoot 0.990945 0.542424
rtoes -28.306850
lfemur -47.493271 10.282635 -15.477110
ltibia 41.281460
lfoot -0.122399 6.932134
ltoes -1.293611
45
root 9.250923 17.323240 -33.133099 8.161967 -10.625779 -5.946303
lowerback -9.576039 1.101045 1.701403
upperback -1.181620 1.114971 4.424156
thorax 4.094827 0.546358 3.773781
lowerneck -23.691801 -4.958855 -13.518560
upperneck 17.342600 -5.871866 15.527710
head 10.169995 -1.931490 6.845861
rclavicle 0.000000 -0.000000
rhumerus -50.062981 22.327251 -103.213989
rradius 58.736149
rwrist -28.361191
rhand -32.566162 -33.387310
rfingers 7.837522
rthumb -3.230271 -66.342865
lclavicle 0.000000 -0.000000
lhumerus -48.238743 -5.983461 100.449135
lradius 24.218590
lwrist -2.116675
lhand 4.659457 -19.440409
lfingers 7.837522
lthumb 32.604988 10.976503
rfemur 24.059528 6.722749 27.870039
rtibia 7.220763
rfoot 0.523310 0.357371
rtoes -22.960190
lfemur -46.950089 10.306791 -16.302879
ltibia 41.871613
lfoot -1.105280 6.911542
ltoes -1.977305
